# xmcd CD database file
#
# Track frame offsets:
#	151
#	16363
#	30978
#	56969
#	74663
#	95275
#	115354
#	139101
#	160004
#	178015
#	195474
#	222937
#
# Disc length: 3190 seconds
#
# Revision: 2
# Processed by: cddbd v1.5.2PL0 Copyright (c) Steve Scherf et al.
# Submitted via: cdripper 1,0,39,0213
#
DISCID=a80c740c
DTITLE=Joanna Wong - Start From Here - Disc 1 of 2
DYEAR=2008
DGENRE=Jazz
TTITLE0=Let's Start From Here
TTITLE1=Lost In Paradise
TTITLE2=As Love Begins To Mend
TTITLE3=Bada Bada
TTITLE4=Lost Taipei
TTITLE5=The Best Mistake I've Ever Made
TTITLE6=I Love You
TTITLE7=For No Reason
TTITLE8=Stages Of Flying
TTITLE9=Now
TTITLE10=True
TTITLE11=New York State Of Mind
EXTD=YEAR: 2008
EXTT0=
EXTT1=
EXTT2=
EXTT3=
EXTT4=
EXTT5=
EXTT6=
EXTT7=
EXTT8=
EXTT9=
EXTT10=
EXTT11=
PLAYORDER=
